<?xml version="1.0" encoding="utf-8"?>
<!-- Generator: Adobe Illustrator 17.0.0, SVG Export Plug-In . SVG Version: 6.00 Build 0)  -->
<!DOCTYPE svg PUBLIC "-//W3C//DTD SVG 1.1//EN" "http://www.w3.org/Graphics/SVG/1.1/DTD/svg11.dtd">
<svg version="1.1" id="Capa_1" xmlns="http://www.w3.org/2000/svg" xmlns:xlink="http://www.w3.org/1999/xlink" x="0px" y="0px"
	 width="290.024px" height="512.065px" viewBox="0 0 290.024 512.065" enable-background="new 0 0 290.024 512.065"
	 xml:space="preserve">
<path d="M290.014,256.066c0,71.981,0.015,143.962-0.009,215.944c-0.006,19.49-10.183,33.778-27.699,38.578
	c-3.799,1.041-7.893,1.4-11.852,1.405c-70.315,0.081-140.63,0.093-210.945,0.04c-23.662-0.018-39.475-15.857-39.481-39.575
	C-0.009,328.162-0.01,183.866,0.03,39.571C0.036,15.869,15.875,0.055,39.56,0.038c70.315-0.051,140.63-0.051,210.945,0
	c23.635,0.017,39.472,15.887,39.489,39.584C290.048,111.77,290.014,183.918,290.014,256.066z M261.662,393.521
	c0-110.253,0-220.241,0-330.101c-78.059,0-155.754,0-233.272,0c0,110.263,0,220.127,0,330.101
	C106.33,393.521,183.895,393.521,261.662,393.521z M145.058,40.708c16.478,0,32.956,0.016,49.434-0.008
	c6.126-0.009,8.457-2.502,8.5-8.924c0.043-6.496-2.201-8.962-8.302-8.965c-33.122-0.014-66.246,0.142-99.366-0.128
	c-6.874-0.056-8.135,3.886-8.218,9.142c-0.101,6.414,2.352,8.867,8.518,8.876C112.102,40.723,128.58,40.708,145.058,40.708z
	 M144.894,475.085c13.125,0.054,24.003-10.774,23.888-23.779c-0.114-12.948-10.655-23.41-23.642-23.463
	c-13.201-0.054-24.028,10.685-23.909,23.715C121.349,464.427,132.015,475.032,144.894,475.085z"/>
<path d="M453.071,165.625c1.86-55.715,29.499-113.947,89.202-155.031c65.44-45.032,156.447-40.792,217.392,10.152
	c55.708,46.566,79.46,106.889,74.492,178.843c-2.66,38.528-16.992,73.184-37.93,105.005
	c-36.152,54.943-72.823,109.551-109.835,163.919c-21.291,31.276-63.438,31.087-84.92-0.216
	c-23.552-34.318-46.35-69.152-69.431-103.792c-15.601-23.414-31.814-46.458-46.517-70.425
	C464.406,259.653,452.718,222.15,453.071,165.625z M644.154,246.934c37.196-0.046,67.277-30.113,67.395-67.365
	c0.119-37.244-30.335-67.688-67.691-67.669c-37.194,0.019-67.667,30.742-67.409,67.963
	C576.706,217.069,606.901,246.981,644.154,246.934z"/>
</svg>
